<?xml version="1.0" encoding="UTF-8" standalone="no"?>
<svg
   version="1.1"
   viewBox="-5 -10 89.953033 89.956383"
   id="svg2"
   width="89.953033"
   height="89.956383"
   xmlns="http://www.w3.org/2000/svg"
   xmlns:svg="http://www.w3.org/2000/svg">
  <defs
     id="defs2" />
  <path
     d="m 49.561802,79.95632 h -19.164 c -1.6289,0 -3.0195,-1.1836 -3.2734,-2.7969 l -1.793,-11.289 c -0.92188,-0.41797 -1.8672,-0.90625 -2.8281,-1.4531 -0.92969,-0.53125 -1.8047,-1.082 -2.6211,-1.6484 l -10.4999998,4.8047 c -1.5625,0.71484 -3.4141,0.11719 -4.2656,-1.3789 l -9.6836,-17.082 c -0.83203,-1.4648 -0.43359,-3.3164 0.92578,-4.3125 l 9.6602,-7.0664 c -0.01172,-0.15625 -0.01953,-0.31641 -0.02734,-0.47656 -0.03516,-0.84375 -0.05469,-1.6094 -0.05469,-2.2812 0,-0.66797 0.01953,-1.4375 0.05469,-2.2773 0.0078,-0.16016 0.01563,-0.32031 0.02734,-0.47656 l -9.6602,-7.0664 c -1.3594,-0.99219 -1.7578,-2.8477 -0.92578,-4.3125 l 9.6875,-17.082 c 0.84766,-1.4961 2.6992,-2.0938 4.2656,-1.3789 L 19.886102,7.1871 c 0.8125,-0.56641 1.6914,-1.1172 2.6211,-1.6484 0.96094,-0.55078 1.9102,-1.0234 2.8359,-1.4219 l 1.7773,-11.316 c 0.25391,-1.6133 1.6445,-2.8008 3.2734,-2.8008 h 19.164 c 1.6289,0 3.0195,1.1836 3.2734,2.7969 l 1.7891,11.277 c 0.90625,0.39844 1.8438,0.85938 2.8008,1.3711 0.98828,0.52734 1.9023,1.0977 2.7344,1.707 l 10.414,-4.7656 c 1.5625,-0.71484 3.4141,-0.11719 4.2656,1.3789 l 9.6875,17.082 c 0.83594,1.4766 0.42188,3.3477 -0.96094,4.3359 l -9.6328,6.8672 c 0.01172,0.17969 0.02344,0.36328 0.03125,0.54687 0.03516,0.84375 0.05469,1.6445 0.05469,2.3828 0,0.74219 -0.01953,1.5273 -0.05469,2.3359 -0.0078,0.16797 -0.01563,0.33984 -0.03125,0.50391 l 9.6484,6.9688 c 1.3711,0.98828 1.7773,2.8516 0.94141,4.3242 l -9.6875,17.082 c -0.84766,1.4961 -2.6992,2.0938 -4.2656,1.3789 l -10.488,-4.8008 c -0.78125,0.55859 -1.6172,1.1094 -2.5,1.6445 -0.98828,0.60156 -1.9844,1.1172 -2.9766,1.5391 l -1.7773,11.199 c -0.24219,1.6172 -1.6328,2.8008 -3.2617,2.8008 m -9.582,-55.203 c -2.8594,0 -5.2266,0.97656 -7.2383,2.9883 -2.0117,2.0117 -2.9883,4.3789 -2.9883,7.2383 0,2.8594 0.97656,5.2266 2.9883,7.2383 2.0117,2.0117 4.3789,2.9883 7.2383,2.9883 2.8594,0 5.2266,-0.97656 7.2383,-2.9883 2.0117,-2.0117 2.9883,-4.3789 2.9883,-7.2383 0,-2.8594 -0.97656,-5.2266 -2.9883,-7.2383 -2.0117,-2.0117 -4.3789,-2.9883 -7.2383,-2.9883"
     id="path1" />
</svg>
