<?xml version="1.0" encoding="UTF-8" standalone="no"?>
<svg
   viewBox="0 0 503.71255 578.06391"
   x="0px"
   y="0px"
   version="1.1"
   id="svg3"
   width="503.71255"
   height="578.0639"
   xmlns="http://www.w3.org/2000/svg"
   xmlns:svg="http://www.w3.org/2000/svg">
  <defs
     id="defs3" />
  <title
     id="title1">ui 182</title>
  <g
     data-name="Layer 2"
     id="g2"
     transform="matrix(25.026865,0,0,25.026865,-48.466095,-11.270162)"
     style="stroke:#000000;stroke-width:0.599356;stroke-linecap:round;stroke-dasharray:none;stroke-opacity:1">
    <path
       d="m 16.58838,4.89746 a 1.24917,1.24917 0 0 0 -1.69141,0.51465 1.24994,1.24994 0 0 0 0.51465,1.69043 7.25,7.25 0 1 1 -6.82324,0 A 1.24985,1.24985 0 0 0 7.99951,4.75 1.26427,1.26427 0 0 0 7.41162,4.89746 a 9.75,9.75 0 1 0 9.17676,0 z"
       id="path1"
       style="stroke:#000000;stroke-width:0.599356;stroke-linecap:round;stroke-dasharray:none;stroke-opacity:1" />
    <path
       d="M 13.25,9 V 2 a 1.25,1.25 0 0 0 -2.5,0 v 7 a 1.25,1.25 0 0 0 2.5,0 z"
       id="path2"
       style="stroke:#000000;stroke-width:0.599356;stroke-linecap:round;stroke-dasharray:none;stroke-opacity:1" />
  </g>
</svg>
