<?xml version="1.0" encoding="UTF-8" standalone="no"?>
<svg
   viewBox="0 0 153 113"
   x="0px"
   y="0px"
   version="1.1"
   id="svg3"
   width="153"
   height="113"
   xmlns="http://www.w3.org/2000/svg"
   xmlns:svg="http://www.w3.org/2000/svg">
  <defs
     id="defs3" />
  <title
     id="title1">Fichier 64</title>
  <g
     data-name="Calque 2"
     id="g2">
    <g
       id="g1">
      <path
         d="M 6,0 A 6,6 0 0 0 0,6 v 101 a 6,6 0 0 0 6,6 h 141 a 6,6 0 0 0 6,-6 V 6 a 6,6 0 0 0 -6,-6 z m 19.66,100 c -3.3,0 -4.36,-2.14 -2.35,-4.76 l 29.85,-39 c 2,-2.62 4.68,-2.26 5.93,0.79 l 15.43,37.42 c 1.25,3 -0.42,5.55 -3.72,5.55 z m 71.19,0 C 93.55,100 90.2,98.42 89.4,96.48 88.6,94.54 88,93 88,93 c 0,0 1.45,-2.28 3.23,-5.06 L 104.51,67.3 a 54.29,54.29 0 0 1 3.34,-4.91 l 3.53,5.06 19.29,27.68 c 1.89,2.7 0.73,4.92 -2.57,4.92 z M 140,79.81 c 0,3.3 -1.54,3.78 -3.43,1.08 L 119,55.67 c -1.89,-2.7 -5,-7.13 -6.86,-9.84 L 111,44.17 c -1.89,-2.71 -4.6,-3.13 -6,-1 l -3.84,5.87 c -0.67,1 -2.71,4.15 -4.51,6.91 L 85.23,73.37 c -1.8,2.76 -3.29,5 -3.3,5 l -2.3,-5.6 -11.4,-27.7 C 67,42 64.92,37 63.66,34 l -1.15,-2.8 c -1.26,-3.05 -3.93,-3.41 -5.93,-0.78 l -1.85,2.4 c -2,2.63 -5.28,6.91 -7.29,9.53 L 16.65,82.56 C 14.65,85.18 13,84.62 13,81.32 V 19 a 6,6 0 0 1 6,-6 h 115 a 6,6 0 0 1 6,6 z"
         id="path1" />
    </g>
  </g>
</svg>
